<svg xmlns="http://www.w3.org/2000/svg" viewBox="0 0 741.18 172.16">
  <defs>
    <style>
      .a {
        fill: #505075;
      }

      .b {
        isolation: isolate;
      }

      .c {
        fill: red;
      }
    </style>
  </defs>
  <title>logo-allodepute_1</title>
  <path class="a" d="M139.38,132.89c-2.11,11-12,21.93-23.26,18.23C97.25,143.64,80,132.5,66.31,117.45,53.93,104,44.25,88.9,38.56,71.4,34.85,61.66,45.41,56.35,52,51.68c9.94-5.36,20.62,14.9,24.36,22.24,4.47,9.44-13.72,11.36-8.63,21.17,1.54,10.13,27.07,35.71,36.07,25.21,2.94-4.8,8.65-9.42,14.16-5.69C123,119.07,139.18,126.57,139.38,132.89Z"/>
  <g class="b">
    <path class="a" d="M115.48,32.33c1.84,0,3.68,0,5.52.1l-.52,3.21A100.17,100.17,0,0,0,97.1,37.37l-1.59-3.06A107.05,107.05,0,0,1,115.48,32.33Z"/>
    <path class="a" d="M123.94,32.6A100.93,100.93,0,0,1,148,37.2l-2.5,2.85a93.54,93.54,0,0,0-22.08-4.24Z"/>
    <path class="a" d="M115.48,38.7c1.5,0,3,0,4.5.07L119.46,42a83.59,83.59,0,0,0-19.21,1.44l-1.61-3.1A90.69,90.69,0,0,1,115.48,38.7Z"/>
    <path class="a" d="M92.68,34.91,94.26,38a80.85,80.85,0,0,0-19.78,7.21l-3.39-2.43A88.07,88.07,0,0,1,92.68,34.91Z"/>
    <path class="a" d="M122.94,39a85.52,85.52,0,0,1,20.14,3.87l-2.53,2.88a77.9,77.9,0,0,0-18.11-3.5Z"/>
    <path class="a" d="M115.5,45.3c1.15,0,2.29,0,3.43.06l-.53,3.29a67.59,67.59,0,0,0-14.89,1.12l-1.62-3.14A74.91,74.91,0,0,1,115.5,45.3Z"/>
    <path class="a" d="M95.8,41l1.6,3.1A68,68,0,0,0,81.2,50l-3.42-2.45A74.62,74.62,0,0,1,95.8,41Z"/>
    <path class="a" d="M150.64,38.1a70.65,70.65,0,0,1,20.23,11.07l-4.19,2A64.76,64.76,0,0,0,148.15,41Z"/>
    <path class="a" d="M121.91,45.53A70.46,70.46,0,0,1,138,48.64l-2.55,2.91a62.34,62.34,0,0,0-14-2.72Z"/>
    <path class="a" d="M99,47.25l1.62,3.14A53.88,53.88,0,0,0,88.16,55L84.7,52.53A61.07,61.07,0,0,1,99,47.25Z"/>
    <path class="a" d="M145.71,43.73a59.69,59.69,0,0,1,16.89,9.32l-4.23,2a53.71,53.71,0,0,0-15.18-8.41Z"/>
    <path class="a" d="M115.5,52.05c.78,0,1.56,0,2.35,0l-.54,3.34a50.36,50.36,0,0,0-10.47.79L105.2,53A57.4,57.4,0,0,1,115.5,52.05Z"/>
    <path class="a" d="M120.86,52.25a54.65,54.65,0,0,1,11.89,2.33l-2.59,2.94a47,47,0,0,0-9.83-1.92Z"/>
    <path class="a" d="M140.61,49.56a48.55,48.55,0,0,1,13.44,7.49l-4.27,2a43.19,43.19,0,0,0-11.73-6.56Z"/>
    <path class="a" d="M102.32,53.65,104,56.83a40.42,40.42,0,0,0-8.73,3.26l-3.49-2.51A46.92,46.92,0,0,1,102.32,53.65Z"/>
    <path class="a" d="M135.4,55.51a37.46,37.46,0,0,1,9.95,5.59l-4.3,2a32.42,32.42,0,0,0-8.23-4.64Z"/>
    <path class="a" d="M172.77,50.76A41.11,41.11,0,0,1,184.22,66.5l-5.23.67a37.67,37.67,0,0,0-10.44-14.45Z"/>
    <path class="a" d="M164.45,54.63a34.62,34.62,0,0,1,9.46,13.19l-5.25.67a31.37,31.37,0,0,0-8.45-11.89Z"/>
    <path class="a" d="M155.87,58.62a28.09,28.09,0,0,1,7.44,10.56l-5.26.66a25,25,0,0,0-6.45-9.22Z"/>
    <path class="a" d="M147.18,62.69a21.46,21.46,0,0,1,5.43,7.85l-5.28.67a18.47,18.47,0,0,0-4.44-6.5Z"/>
    <path class="a" d="M153.23,72.49a16.2,16.2,0,0,1-.06,8.21l-5.33-.78a14.05,14.05,0,0,0,.1-6.76Z"/>
    <path class="a" d="M164,71.12a20.93,20.93,0,0,1,0,11.16l-5.33-.78a18.7,18.7,0,0,0,0-9.71Z"/>
    <path class="a" d="M174.56,69.76a25.62,25.62,0,0,1,.21,14.08l-5.34-.78a23.36,23.36,0,0,0-.12-12.63Z"/>
    <path class="a" d="M184.9,68.44a30.32,30.32,0,0,1,.43,16.94L180,84.6a27.85,27.85,0,0,0-.31-15.49Z"/>
    <path class="a" d="M147.18,81.89l5.33.78a22.4,22.4,0,0,1-5.36,7.75l-4.42-2.16A19.3,19.3,0,0,0,147.18,81.89Z"/>
    <path class="a" d="M158,83.47l5.34.78a28.41,28.41,0,0,1-7.2,10.58l-4.45-2.18A25.3,25.3,0,0,0,158,83.47Z"/>
    <path class="a" d="M140.87,89.9l4.41,2.16a38,38,0,0,1-9.36,5.45l-2.75-3.16A32.6,32.6,0,0,0,140.87,89.9Z"/>
    <path class="a" d="M168.81,85.05l5.35.78a34.48,34.48,0,0,1-9,13.41l-4.48-2.19A31.64,31.64,0,0,0,168.81,85.05Z"/>
    <path class="a" d="M179.36,86.59l5.37.78a40.3,40.3,0,0,1-10.66,16.22l-4.52-2.21A37.39,37.39,0,0,0,179.36,86.59Z"/>
    <path class="a" d="M149.85,94.31l4.46,2.18a49.12,49.12,0,0,1-12.76,7.5l-2.78-3.2A43.46,43.46,0,0,0,149.85,94.31Z"/>
    <path class="a" d="M158.85,98.71l4.48,2.21a59.52,59.52,0,0,1-16.12,9.57l-2.82-3.23A54.16,54.16,0,0,0,158.85,98.71Z"/>
    <path class="a" d="M167.71,103.06l4.52,2.21a69.33,69.33,0,0,1-19.44,11.64L150,113.64A64.61,64.61,0,0,0,167.71,103.06Z"/>
  </g>
  <g>
    <path class="a" d="M250.87,87.38h-19l-3.62,8.78h-9.71l18.25-40.95h9.36l18.31,40.95h-9.95Zm-3-7.19-6.49-15.68L234.9,80.19Z"/>
    <path class="a" d="M268.71,55.21h9.48V88.44h20.53v7.72h-30Z"/>
    <path class="a" d="M304,55.21h9.48V88.44h20.53v7.72H304Z"/>
    <path class="a" d="M347,94.11a20.43,20.43,0,0,1-8-7.57,21.77,21.77,0,0,1,0-21.71,20.43,20.43,0,0,1,8-7.57,25.34,25.34,0,0,1,23,0,20.87,20.87,0,0,1,0,36.85,25.34,25.34,0,0,1-23,0Zm18.05-7a11.93,11.93,0,0,0,4.59-4.65,14.62,14.62,0,0,0,0-13.57,11.93,11.93,0,0,0-4.59-4.65,13.7,13.7,0,0,0-13.11,0,11.93,11.93,0,0,0-4.59,4.65,14.62,14.62,0,0,0,0,13.57A11.93,11.93,0,0,0,352,87.12a13.7,13.7,0,0,0,13.11,0Z"/>
    <path class="a" d="M416.39,55.21H435a26.28,26.28,0,0,1,11.79,2.54,19.08,19.08,0,0,1,8,7.17,20.17,20.17,0,0,1,2.84,10.76,20.18,20.18,0,0,1-2.84,10.77,19,19,0,0,1-8,7.16A26.15,26.15,0,0,1,435,96.16h-18.6Zm18.13,33.17q6.15,0,9.8-3.42A12.08,12.08,0,0,0,448,75.68a12.09,12.09,0,0,0-3.66-9.27Q440.66,63,434.52,63h-8.66V88.38Z"/>
    <path class="a" d="M496.41,88.55v7.61h-31.7V55.21h30.94v7.6H474.12v8.9h19v7.37h-19v9.47Zm-13.63-45.1h9.83L482,51.88h-7.13Z"/>
    <path class="a" d="M531.13,57a13.57,13.57,0,0,1,8.34,13,14.2,14.2,0,0,1-2.17,7.87,13.8,13.8,0,0,1-6.17,5.15,23.06,23.06,0,0,1-9.45,1.78h-8.24V96.16H504V55.21h17.72A22.89,22.89,0,0,1,531.13,57ZM527.65,75.3a6.41,6.41,0,0,0,2.23-5.23,6.51,6.51,0,0,0-2.23-5.3c-1.48-1.22-3.64-1.84-6.49-1.84h-7.72V77.15h7.72Q525.43,77.15,527.65,75.3Z"/>
    <path class="a" d="M550.56,92q-4.89-4.86-4.89-13.87V55.21h9.48V77.79q0,11,9.12,11,4.46,0,6.79-2.66t2.34-8.34V55.21h9.36V78.14q0,9-4.88,13.87t-13.66,4.85Q555.44,96.86,550.56,92Z"/>
    <path class="a" d="M599.9,62.93H586.8V55.21h35.68v7.72h-13.1V96.16H599.9Z"/>
    <path class="a" d="M659.28,88.55v7.61H627.57V55.21h30.95v7.6H637v8.9h19v7.37H637v9.47Zm-13.63-45.1h9.82l-10.58,8.43h-7.14Z"/>
    <path class="a" d="M665.59,81a5.56,5.56,0,0,1-1.63-4.1,5.33,5.33,0,0,1,1.63-4.06,6,6,0,0,1,8.08,0,5.33,5.33,0,0,1,1.63,4.06,5.71,5.71,0,0,1-9.71,4.1Z"/>
    <path class="a" d="M713.86,88.55v7.61H682.15V55.21h30.94v7.6H691.57v8.9h19v7.37h-19v9.47Z"/>
  </g>
  <ellipse class="c" cx="73.39" cy="114.36" rx="2.32" ry="2.5"/>
</svg>
