<svg xmlns="http://www.w3.org/2000/svg" viewBox="0 0 52.18 52.18">
  <defs>
    <style>
      .a {
        fill: #505075;
      }
    </style>
  </defs>
  <title>twitter</title>
  <path class="a" d="M38.22,18.11c0,.27,0,.54,0,.81,0,8.33-6.34,17.93-17.93,17.93A17.76,17.76,0,0,1,10.66,34a12.33,12.33,0,0,0,1.5.09A12.62,12.62,0,0,0,20,31.41,6.29,6.29,0,0,1,14.1,27a5.76,5.76,0,0,0,1.18.12,6.46,6.46,0,0,0,1.66-.22,6.31,6.31,0,0,1-5.05-6.18v-.08a6.39,6.39,0,0,0,2.85.79,6.33,6.33,0,0,1-2-8.42,17.86,17.86,0,0,0,13,6.59,6.17,6.17,0,0,1-.16-1.44,6.3,6.3,0,0,1,10.9-4.31,12.67,12.67,0,0,0,4-1.53,6.33,6.33,0,0,1-2.77,3.49,12.31,12.31,0,0,0,3.62-1,12.89,12.89,0,0,1-3.15,3.27"/>
</svg>
